<?xml version="1.0" encoding="UTF-8" standalone="no"?><!DOCTYPE svg PUBLIC "-//W3C//DTD SVG 1.1//EN" "http://www.w3.org/Graphics/SVG/1.1/DTD/svg11.dtd"><svg width="100%" height="100%" viewBox="0 0 250 250" version="1.1" xmlns="http://www.w3.org/2000/svg" xmlns:xlink="http://www.w3.org/1999/xlink" xml:space="preserve" xmlns:serif="http://www.serif.com/" style="fill-rule:evenodd;clip-rule:evenodd;stroke-linejoin:round;stroke-miterlimit:2;"><path d="M108.887,149.354c1.907,0 3.624,1.174 3.839,2.993l-1.187,0c-0.29,-1.2 -1.212,-1.906 -2.715,-1.906c-1.73,0 -2.968,1.477 -2.968,3.675c0,2.45 1.061,3.737 2.98,3.737c1.68,0 2.892,-0.96 2.892,-2.905l0,-0.087l-2.829,0l0,-1.049l3.978,0l0,4.85l-0.796,0l-0.29,-1.175c-0.619,0.859 -1.743,1.415 -3.006,1.415c-2.74,0 -4.193,-2.021 -4.193,-4.699c0,-2.841 1.667,-4.849 4.294,-4.849Zm8.604,2.513c1.831,0 2.841,1.415 2.841,3.852l-4.824,0c0,1.401 0.657,2.171 1.92,2.171c0.909,0 1.629,-0.656 1.705,-1.3l1.111,0c-0.114,0.555 -0.631,2.26 -2.904,2.26c-1.97,0 -3.018,-1.414 -3.018,-3.321c0,-2.21 1.124,-3.662 3.17,-3.662Zm6.5,0c1.591,0 2.425,0.871 2.488,2.071l-1.074,0c0,-0.72 -0.543,-1.111 -1.528,-1.111c-0.77,0 -1.351,0.316 -1.351,0.935c0,0.441 0.215,0.644 1.086,0.859l1.276,0.315c1.262,0.316 1.806,0.809 1.806,1.73c0,1.301 -1.061,2.185 -2.627,2.185c-1.781,0 -2.791,-0.707 -2.829,-2.311l1.073,0c0.05,0.998 0.72,1.351 1.743,1.351c0.922,0 1.528,-0.391 1.528,-1.035c0,-0.669 -0.657,-0.782 -1.389,-0.972l-1.149,-0.29c-0.758,-0.19 -1.591,-0.544 -1.591,-1.618c0,-1.3 1.01,-2.109 2.538,-2.109Zm10.12,0c1.376,0 2.512,0.556 2.512,1.856l0,3.814c0,0.203 0.101,0.366 0.366,0.366c0.101,0 0.227,-0.013 0.366,-0.05l0,0.809c-0.227,0.075 -0.391,0.126 -0.619,0.126c-0.695,0 -1.124,-0.252 -1.161,-1.011c-0.745,0.846 -1.591,1.074 -2.375,1.074c-1.225,0 -2.084,-0.77 -2.084,-1.906c0,-1.124 0.657,-1.907 1.996,-2.071l1.844,-0.227c0.404,-0.051 0.58,-0.265 0.58,-0.77c0,-0.72 -0.505,-1.086 -1.552,-1.086c-0.898,0 -1.403,0.366 -1.516,1.275l-1.023,0c0.025,-1.401 0.909,-2.197 2.665,-2.197Zm28.826,6.795l-1.048,0l0,-0.91l-0.025,0c-0.316,0.606 -0.898,1.099 -1.907,1.099c-1.92,0 -2.879,-1.666 -2.879,-3.688c0,-1.945 1.099,-3.296 2.752,-3.296c0.809,0 1.415,0.304 1.97,1.124l0.025,0l0,-3.396l1.111,0l0,9.067Zm2.686,-2.172c0,0.859 0.429,1.401 1.275,1.401c1.162,0 1.819,-0.884 1.819,-2.26l0,-3.574l1.111,0l0,6.605l-1.048,0l0,-0.96l-0.026,-0.025c-0.493,0.782 -1.047,1.174 -2.096,1.174c-1.3,0 -2.146,-0.757 -2.146,-2.007l0,-4.786l1.111,0l0,4.433Zm8.596,-4.623c1.414,0 2.349,0.897 2.475,2.412l-1.074,0c-0.139,-0.896 -0.619,-1.415 -1.566,-1.415c-1.186,0 -1.817,0.998 -1.817,2.489c0,1.641 0.593,2.537 1.805,2.537c0.758,0 1.403,-0.555 1.579,-1.565l1.074,0c-0.19,1.553 -1.149,2.525 -2.69,2.525c-1.819,0 -2.955,-1.364 -2.955,-3.321c0,-2.134 1.061,-3.662 3.17,-3.662Zm6.213,0c1.377,0 2.514,0.556 2.514,1.856l0,3.814c0,0.203 0.101,0.366 0.366,0.366c0.101,0 0.227,-0.013 0.366,-0.05l0,0.809c-0.228,0.075 -0.391,0.126 -0.619,0.126c-0.695,0 -1.124,-0.252 -1.162,-1.011c-0.745,0.846 -1.591,1.074 -2.374,1.074c-1.225,0 -2.084,-0.77 -2.084,-1.906c0,-1.124 0.656,-1.907 1.995,-2.071l1.844,-0.227c0.405,-0.05 0.581,-0.265 0.581,-0.77c0,-0.72 -0.505,-1.086 -1.554,-1.086c-0.896,0 -1.401,0.366 -1.515,1.275l-1.022,0c0.025,-1.401 0.909,-2.197 2.664,-2.197Zm7.119,0c1.415,0 2.349,0.897 2.475,2.412l-1.072,0c-0.139,-0.896 -0.619,-1.415 -1.566,-1.415c-1.188,0 -1.819,0.999 -1.819,2.489c0,1.641 0.594,2.537 1.806,2.537c0.757,0 1.401,-0.555 1.579,-1.565l1.072,0c-0.189,1.553 -1.149,2.525 -2.69,2.525c-1.817,0 -2.955,-1.364 -2.955,-3.321c0,-2.134 1.061,-3.662 3.17,-3.662Zm23.047,0c1.377,0 2.514,0.556 2.514,1.856l0,3.814c0,0.203 0.101,0.366 0.366,0.366c0.101,0 0.228,-0.013 0.366,-0.05l0,0.809c-0.227,0.075 -0.391,0.126 -0.619,0.126c-0.695,0 -1.124,-0.252 -1.162,-1.011c-0.745,0.846 -1.591,1.074 -2.374,1.074c-1.225,0 -2.084,-0.77 -2.084,-1.906c0,-1.124 0.656,-1.907 1.995,-2.071l1.844,-0.227c0.405,-0.05 0.581,-0.265 0.581,-0.77c0,-0.72 -0.505,-1.086 -1.554,-1.086c-0.896,0 -1.401,0.366 -1.515,1.275l-1.023,0c0.025,-1.401 0.909,-2.197 2.664,-2.197Zm-69.407,0c1.983,0 3.069,1.591 3.069,3.486c0,1.919 -1.111,3.485 -3.056,3.485c-1.983,0 -3.081,-1.579 -3.081,-3.485c0,-1.984 1.162,-3.486 3.069,-3.486Zm55.436,0c1.983,0 3.069,1.591 3.069,3.486c0,1.919 -1.111,3.485 -3.056,3.485c-1.982,0 -3.081,-1.579 -3.081,-3.485c0,-1.984 1.162,-3.486 3.069,-3.486Zm-118.163,3.31c-0,2.002 -1.623,3.625 -3.626,3.625l-31.42,0c-2.002,0 -3.625,-1.623 -3.626,-3.625l0,-6.043l38.671,0l0,6.043Zm50.869,-3.12l1.06,0l0,0.921l-1.06,0l0,4.32c0,0.302 0.164,0.492 0.619,0.492l0.441,0l0,0.871c-0.354,0.037 -0.569,0.088 -0.846,0.088c-0.96,0 -1.326,-0.48 -1.326,-1.376l0,-4.395l-0.896,0l0,-0.921l0.896,0l0,-1.844l1.113,0l0,1.844Zm26.57,-1.376l-5.38,0l0,2.778l4.964,0l0,1.086l-4.964,0l0,3.031l5.469,0l0,1.086l-6.694,0l0,-9.067l6.605,0l0,1.086Zm36.371,7.981l-1.111,0l0,-6.605l1.111,0l0,6.605Zm11.749,-6.795c1.465,0 2.311,0.821 2.311,2.249l0,4.546l-1.111,0l0,-4.029c0,-0.985 -0.202,-1.769 -1.403,-1.769c-1.06,0 -1.755,0.859 -1.755,2.135l0,3.662l-1.111,0l0,-6.605l1.049,0l0,0.934l0.025,0c0.606,-0.846 1.275,-1.124 1.995,-1.124Zm12.102,6.795l-1.111,0l0,-9.067l1.111,0l0,9.067Zm-80.614,-3.373c-0.265,0.228 -0.985,0.291 -1.995,0.442c-0.745,0.114 -1.25,0.391 -1.25,1.06c0,0.683 0.34,1.138 1.199,1.138c1.049,0 2.046,-0.695 2.046,-1.554l0,-1.086Zm46.323,0c-0.265,0.228 -0.985,0.291 -1.995,0.442c-0.745,0.114 -1.251,0.391 -1.251,1.06c0,0.683 0.341,1.138 1.2,1.138c1.049,0 2.046,-0.695 2.046,-1.554l0,-1.086Zm30.166,0c-0.265,0.228 -0.985,0.291 -1.995,0.442c-0.745,0.114 -1.251,0.391 -1.251,1.06c0,0.683 0.341,1.138 1.2,1.138c1.049,0 2.046,-0.695 2.046,-1.554l0,-1.086Zm-51.98,-2.425c-0.985,0 -1.794,0.544 -1.794,2.387c0,1.705 0.669,2.639 1.78,2.639c1.011,0 1.806,-0.795 1.806,-2.21c0,-1.869 -0.567,-2.816 -1.792,-2.816Zm-18.843,-0.038c-1.275,0 -1.907,1.111 -1.907,2.526c0,1.339 0.594,2.525 1.92,2.525c1.364,0 1.92,-1.275 1.92,-2.488c0,-1.314 -0.531,-2.564 -1.933,-2.564Zm55.436,0c-1.275,0 -1.907,1.111 -1.907,2.526c0,1.339 0.594,2.525 1.92,2.525c1.364,0 1.92,-1.275 1.92,-2.488c0,-1.314 -0.531,-2.564 -1.933,-2.564Zm-79.275,0.038c-0.972,0 -1.819,0.885 -1.831,1.97l3.675,0c-0.101,-1.351 -0.745,-1.97 -1.844,-1.97Zm18.994,-3.321c-0.101,0.745 -0.518,1.377 -1.263,1.377c-0.606,0 -1.314,-0.468 -1.87,-0.468c-0.341,0 -0.468,0.253 -0.567,0.555l-0.606,0c0.114,-0.921 0.606,-1.351 1.339,-1.351c0.644,0 1.3,0.468 1.705,0.468c0.353,0 0.555,-0.164 0.631,-0.581l0.631,0Zm55.941,1.314l-1.111,0l0,-1.262l1.111,0l0,1.262Zm-18.235,-11.282c0.834,0 1.502,0.366 1.995,1.163l0,-0.973l1.049,0l0,6.2c0,2.425 -1.275,3.183 -3.081,3.183c-1.465,0 -2.4,-0.733 -2.514,-1.97l1.111,0c0.101,0.67 0.632,1.049 1.504,1.049c1.213,0 1.869,-0.606 1.869,-2.135l0,-0.466c-0.316,0.53 -0.846,0.934 -1.819,0.934c-1.906,0 -2.866,-1.654 -2.866,-3.688c0,-1.945 1.086,-3.296 2.752,-3.296Zm-137.872,-0.107c2.002,0 3.626,1.623 3.626,3.625l0,6.042l-6.043,0c-2.002,0 -3.625,-1.624 -3.626,-3.626l0,-2.416c0,-2.002 1.623,-3.625 3.626,-3.625l2.417,0Zm48.34,-9.669c2.002,0 3.625,1.624 3.625,3.625l0,12.085c-0,2.002 -1.623,3.626 -3.625,3.626l-6.043,0l0,-19.336l6.043,0Zm20.13,7.264c1.882,0 3.448,0.656 3.536,2.891l-1.149,0c-0.05,-1.174 -0.922,-1.844 -2.248,-1.844c-1.288,0 -2.071,0.544 -2.071,1.591c0,0.606 0.353,0.985 1.073,1.15l2.538,0.58c1.503,0.341 2.109,1.225 2.109,2.464c0,1.881 -1.616,2.715 -3.561,2.715c-2.324,0 -3.65,-1.049 -3.65,-3.17l1.149,0l0,0.025c0,1.339 0.998,2.096 2.501,2.096c1.035,0 2.374,-0.29 2.374,-1.54c0,-1.086 -0.695,-1.301 -2.311,-1.68l-1.528,-0.354c-1.326,-0.304 -1.882,-1.136 -1.882,-2.121c0,-1.668 1.149,-2.804 3.119,-2.804Zm10.339,2.512c1.591,0 2.425,0.871 2.488,2.071l-1.073,0c0,-0.72 -0.543,-1.111 -1.528,-1.111c-0.77,0 -1.351,0.316 -1.351,0.935c0,0.441 0.215,0.644 1.086,0.859l1.276,0.315c1.263,0.316 1.806,0.809 1.806,1.731c0,1.3 -1.061,2.184 -2.627,2.184c-1.781,0 -2.791,-0.706 -2.829,-2.311l1.074,0c0.05,0.999 0.72,1.352 1.743,1.352c0.922,0 1.528,-0.392 1.528,-1.036c0,-0.669 -0.657,-0.782 -1.389,-0.972l-1.149,-0.29c-0.758,-0.19 -1.591,-0.544 -1.591,-1.618c0,-1.3 1.01,-2.109 2.538,-2.109Zm10.347,0c1.831,0 2.841,1.415 2.841,3.853l-4.824,0c0,1.401 0.657,2.171 1.92,2.172c0.909,0 1.629,-0.657 1.705,-1.301l1.111,0c-0.114,0.555 -0.631,2.26 -2.905,2.26c-1.97,0 -3.018,-1.414 -3.018,-3.321c0,-2.21 1.124,-3.663 3.169,-3.663Zm17.31,0c1.376,0 2.514,0.556 2.514,1.856l0,3.815c0,0.201 0.101,0.366 0.366,0.366c0.101,0 0.228,-0.014 0.366,-0.051l0,0.809c-0.227,0.075 -0.391,0.126 -0.619,0.126c-0.695,0 -1.124,-0.252 -1.162,-1.01c-0.745,0.845 -1.591,1.072 -2.374,1.072c-1.225,0 -2.084,-0.77 -2.084,-1.906c0,-1.124 0.656,-1.907 1.995,-2.071l1.844,-0.228c0.404,-0.05 0.581,-0.265 0.581,-0.77c0,-0.72 -0.505,-1.086 -1.554,-1.086c-0.896,0 -1.401,0.366 -1.515,1.275l-1.023,0c0.025,-1.401 0.909,-2.198 2.664,-2.198Zm24.808,0c1.831,0 2.841,1.415 2.841,3.853l-4.825,0c0,1.401 0.657,2.172 1.92,2.172c0.91,0 1.629,-0.657 1.705,-1.301l1.111,0c-0.114,0.555 -0.631,2.26 -2.905,2.26c-1.97,0 -3.017,-1.414 -3.017,-3.321c0,-2.21 1.124,-3.663 3.17,-3.663Zm17.766,0c1.376,0 2.512,0.556 2.512,1.856l0,3.815c0,0.201 0.101,0.366 0.366,0.366c0.101,0 0.227,-0.014 0.366,-0.051l0,0.809c-0.227,0.075 -0.391,0.126 -0.619,0.126c-0.694,0 -1.124,-0.252 -1.161,-1.01c-0.745,0.846 -1.591,1.072 -2.375,1.072c-1.225,0 -2.084,-0.77 -2.084,-1.906c0,-1.124 0.657,-1.907 1.996,-2.071l1.844,-0.228c0.404,-0.05 0.58,-0.265 0.58,-0.77c0,-0.72 -0.505,-1.086 -1.552,-1.086c-0.898,0 -1.403,0.366 -1.516,1.275l-1.023,0c0.025,-1.401 0.909,-2.198 2.665,-2.198Zm9.871,6.795l-1.049,0l0,-0.91l-0.025,0c-0.315,0.606 -0.896,1.099 -1.906,1.099c-1.92,0 -2.88,-1.666 -2.88,-3.688c0,-1.945 1.099,-3.296 2.754,-3.296c0.808,0 1.414,0.304 1.97,1.124l0.025,0l0,-3.396l1.111,0l0,9.067Zm17.55,0l-1.049,0l0,-0.91l-0.025,0c-0.316,0.606 -0.896,1.099 -1.907,1.099c-1.919,0 -2.879,-1.666 -2.879,-3.688c0,-1.945 1.099,-3.296 2.752,-3.296c0.809,0 1.415,0.304 1.97,1.124l0.026,0l0,-3.396l1.111,0l0,9.067Zm4.39,-6.795c1.831,0 2.841,1.415 2.841,3.853l-4.824,0c0,1.401 0.656,2.172 1.92,2.172c0.909,-0.001 1.629,-0.657 1.705,-1.301l1.111,0c-0.114,0.555 -0.633,2.26 -2.905,2.26c-1.97,0 -3.019,-1.414 -3.019,-3.321c0,-2.21 1.124,-3.663 3.17,-3.663Zm-17.714,0c1.982,0 3.069,1.591 3.069,3.486c0,1.919 -1.111,3.485 -3.056,3.485c-1.982,0 -3.081,-1.579 -3.081,-3.485c0,-1.983 1.162,-3.486 3.069,-3.486Zm-78.986,0.19l1.061,0l0,0.921l-1.061,0l0,4.32c0,0.303 0.164,0.493 0.619,0.493l0.442,0l0,0.871c-0.353,0.037 -0.568,0.089 -0.846,0.089c-0.96,0 -1.326,-0.48 -1.326,-1.377l0,-4.395l-0.896,0l0,-0.921l0.896,0l0,-1.844l1.111,0l0,1.844Zm42.117,0l1.06,0l0,0.921l-1.06,0l0,4.32c0,0.303 0.164,0.493 0.619,0.493l0.441,0l0,0.871c-0.354,0.037 -0.567,0.089 -0.846,0.089c-0.959,0 -1.326,-0.48 -1.326,-1.377l0,-4.395l-0.896,0l0,-0.921l0.896,0l0,-1.844l1.113,0l0,1.844Zm-51.459,6.605l-1.111,0l0,-6.605l1.111,0l0,6.605Zm25.303,-6.795c1.251,0 2.096,0.821 2.096,2.173l0,4.623l-1.111,0l0,-4.206c0,-0.77 -0.139,-1.591 -1.225,-1.591c-0.871,0 -1.552,0.821 -1.552,1.806l0,3.991l-1.111,0l0,-4.571c0,-0.759 -0.379,-1.226 -1.036,-1.226c-1.048,0 -1.743,0.859 -1.743,2.135l0,3.662l-1.111,0l0,-6.605l1.047,0l0,0.934l0.026,0c0.567,-0.845 1.275,-1.124 1.995,-1.124c0.72,0 1.389,0.304 1.755,1.074c0.732,-0.884 1.289,-1.074 1.97,-1.074Zm15.811,6.795l-1.225,0l0,-9.067l1.225,0l0,9.067Zm5.031,-6.795c1.464,0 2.31,0.821 2.31,2.249l0,4.546l-1.111,0l0,-4.029c0,-0.985 -0.201,-1.769 -1.401,-1.769c-1.061,0 -1.755,0.859 -1.755,2.135l0,3.662l-1.111,0l0,-6.605l1.047,0l0,0.934l0.025,0c0.606,-0.845 1.276,-1.124 1.996,-1.124Zm24.456,0c0.126,0 0.227,0.013 0.29,0.039l0,1.149l-0.429,0c-0.784,0 -1.68,0.53 -1.68,1.831l0,3.776l-1.111,0l0,-6.605l1.047,0l0,1.099l0.026,0c0.441,-0.77 0.998,-1.289 1.856,-1.289Zm-37.544,3.423c-0.265,0.227 -0.985,0.291 -1.996,0.442c-0.745,0.114 -1.25,0.391 -1.25,1.061c0,0.681 0.341,1.136 1.2,1.136c1.049,0 2.046,-0.695 2.046,-1.554l0,-1.086Zm42.572,0c-0.265,0.227 -0.985,0.291 -1.995,0.442c-0.745,0.114 -1.25,0.391 -1.25,1.061c0,0.681 0.341,1.136 1.2,1.136c1.048,0 2.045,-0.695 2.045,-1.554l0,-1.086Zm-12.377,-2.425c-1.111,0 -1.794,0.683 -1.794,2.45c0,1.63 0.67,2.576 1.768,2.577c1.024,0 1.819,-0.784 1.819,-2.211c0,-1.894 -0.58,-2.816 -1.793,-2.816Zm17.93,0c-0.985,0 -1.794,0.544 -1.794,2.388c0,1.705 0.67,2.64 1.781,2.64c1.01,-0.001 1.806,-0.796 1.806,-2.211c0,-1.869 -0.569,-2.816 -1.794,-2.816Zm17.55,0c-0.985,0 -1.794,0.544 -1.794,2.388c0,1.705 0.67,2.639 1.781,2.64c1.01,0 1.806,-0.796 1.806,-2.211c0,-1.869 -0.569,-2.816 -1.794,-2.816Zm-10.419,-0.037c-1.275,0 -1.907,1.111 -1.907,2.526c0,1.339 0.594,2.525 1.92,2.525c1.364,0 1.92,-1.275 1.92,-2.488c0,-1.314 -0.531,-2.564 -1.933,-2.564Zm-74.12,0.037c-0.972,0 -1.819,0.885 -1.831,1.97l3.675,0c-0.101,-1.351 -0.745,-1.97 -1.844,-1.97Zm42.116,0c-0.971,0 -1.817,0.885 -1.831,1.97l3.675,0c-0.1,-1.35 -0.745,-1.97 -1.844,-1.97Zm49.579,0c-0.972,0 -1.819,0.885 -1.831,1.97l3.675,0c-0.101,-1.351 -0.745,-1.97 -1.844,-1.97Zm-105.89,-2.007l-1.111,0l0,-1.262l1.111,0l0,1.262Zm4.266,-47.439c7.713,0 14.132,2.692 14.495,11.854l-4.711,0c-0.207,-4.814 -3.779,-7.558 -9.214,-7.558c-5.28,0 -8.49,2.226 -8.49,6.523c0,2.485 1.45,4.038 4.4,4.71l10.405,2.381c6.16,1.398 8.645,5.021 8.645,10.094c0,7.713 -6.626,11.13 -14.598,11.13c-9.525,0 -14.96,-4.297 -14.96,-12.993l4.711,0l0,0.104c0,5.487 4.09,8.594 10.25,8.594c4.245,0 9.732,-1.191 9.732,-6.316c0,-4.452 -2.847,-5.332 -9.473,-6.885l-6.264,-1.45c-5.435,-1.242 -7.713,-4.659 -7.713,-8.697c0,-6.833 4.711,-11.492 12.786,-11.492Zm52.455,0c7.816,0 14.856,4.814 15.736,12.268l-4.865,0c-1.191,-4.918 -4.97,-7.816 -11.13,-7.816c-7.093,0 -12.165,6.057 -12.165,15.064c0,10.043 4.349,15.323 12.216,15.323c6.885,0 11.855,-3.935 11.855,-11.907l0,-0.362l-11.596,0l0,-4.296l16.306,0l0,19.878l-3.261,0l-1.19,-4.814c-2.536,3.521 -7.144,5.798 -12.32,5.798c-11.234,0 -17.186,-8.283 -17.186,-19.257c0,-11.647 6.833,-19.878 17.6,-19.878Zm-106.128,29.004l13.27,0c2.002,0 3.626,1.623 3.626,3.626l0,6.043l-35.046,0c-2.002,0 -3.626,-1.624 -3.626,-3.626l0,-6.043l21.753,0c0.008,0 0.015,0.001 0.023,0.001Zm81.368,9.147l-5.021,0l0,-37.168l5.021,0l0,37.168Zm76.49,-32.716l-22.053,0l0,11.389l20.344,0l0,4.452l-20.344,0l0,12.424l22.415,0l0,4.452l-27.436,0l0,-37.168l27.074,0l0,4.452Zm-179.634,23.569l-6.043,0c-2.002,0 -3.626,-1.623 -3.626,-3.626l0,-12.085c0,-2.002 1.623,-3.626 3.626,-3.626l6.043,0l0,19.336Zm44.714,-19.336c2.002,0 3.625,1.623 3.625,3.626l0,2.417c0,2.002 -1.623,3.625 -3.625,3.626l-2.417,0c-2.002,0 -3.626,-1.623 -3.626,-3.626l0,-6.042l6.043,0Zm-9.668,-9.668c2.002,0 3.625,1.623 3.626,3.626l0,6.043l-38.671,0l0,-6.043c0,-2.002 1.623,-3.626 3.626,-3.626l31.42,0Z" style="fill:#000037;fill-rule:nonzero;"/></svg>